<svg xmlns="http://www.w3.org/2000/svg" viewBox="0 0 480 270"><rect width="100%" height="100%" fill="#DDDDDD"/><path fill="#999999" d="M108.69 123.98h3.67v22.41h-2.13q-.5 0-.83-.16-.34-.17-.65-.55l-11.7-14.94q.09 1.02.09 1.89v13.76h-3.67v-22.41h2.19q.26 0 .45.02.2.02.34.09.15.07.29.2.14.14.31.35l11.75 15.01q-.05-.55-.08-1.07-.03-.53-.03-.98v-13.62Zm15.1 6.26q1.77 0 3.21.57 1.45.58 2.48 1.63 1.04 1.05 1.59 2.57.56 1.52.56 3.4 0 1.89-.56 3.41-.55 1.52-1.59 2.59-1.03 1.07-2.48 1.64-1.44.57-3.21.57-1.78 0-3.24-.57-1.46-.57-2.49-1.64-1.03-1.07-1.6-2.59-.56-1.52-.56-3.41 0-1.88.56-3.4.57-1.52 1.6-2.57 1.03-1.05 2.49-1.63 1.46-.57 3.24-.57Zm0 13.44q1.98 0 2.94-1.34.95-1.33.95-3.9t-.95-3.92q-.96-1.35-2.94-1.35-2.02 0-2.99 1.35-.96 1.36-.96 3.92 0 2.56.96 3.9.97 1.34 2.99 1.34Zm23.08-8.43h3.11q1.15 0 2-.29.86-.29 1.42-.82.57-.54.85-1.3.27-.77.27-1.72 0-.9-.27-1.62-.28-.73-.84-1.25-.56-.51-1.41-.78-.85-.27-2.02-.27h-3.11v8.05Zm-4.17-11.27h7.28q2.25 0 3.89.52 1.65.53 2.72 1.48 1.07.94 1.59 2.26.51 1.32.51 2.88 0 1.63-.54 2.99-.54 1.35-1.63 2.33-1.08.98-2.72 1.52-1.63.54-3.82.54h-3.11v7.89h-4.17v-22.41Zm21.96 7.47.23 1.8q.75-1.43 1.77-2.24 1.02-.82 2.42-.82 1.1 0 1.77.48l-.25 2.87q-.08.28-.23.4-.14.11-.39.11-.23 0-.69-.08-.46-.07-.89-.07-.64 0-1.13.18-.5.19-.9.54-.39.35-.69.84-.31.5-.57 1.13v9.8h-3.83v-15.9h2.25q.59 0 .82.21.23.21.31.75Zm11.21 5.16h7.22q0-.74-.21-1.4-.21-.66-.63-1.16-.41-.49-1.06-.78-.64-.29-1.49-.29-1.66 0-2.61.95-.96.94-1.22 2.68Zm9.76 2.31h-9.84q.09 1.22.43 2.11.35.9.9 1.48.56.58 1.33.87.77.28 1.7.28.93 0 1.6-.21.67-.22 1.18-.49.5-.26.88-.48.38-.21.74-.21.48 0 .71.35l1.1 1.4q-.63.74-1.42 1.25-.79.5-1.65.8-.87.3-1.76.43-.89.12-1.72.12-1.66 0-3.09-.55t-2.48-1.63q-1.05-1.07-1.66-2.66-.6-1.59-.6-3.68 0-1.63.52-3.06.53-1.44 1.52-2.5.98-1.06 2.4-1.68 1.42-.62 3.2-.62 1.5 0 2.77.48t2.19 1.4q.91.92 1.43 2.27.52 1.34.52 3.06 0 .86-.18 1.17-.19.3-.72.3Zm15.08-8.43h3.03l-6.31 15.9h-3.47l-6.31-15.9h3.16q.43 0 .72.2t.38.51l3.07 8.49q.25.75.43 1.46.19.71.33 1.43.15-.72.34-1.43.19-.71.45-1.46l3.13-8.49q.11-.31.39-.51t.66-.2Zm5.18 0h3.85v15.9h-3.85v-15.9Zm4.37-4.64q0 .5-.2.93-.2.44-.53.76-.34.33-.79.52t-.96.19q-.49 0-.93-.19-.45-.19-.77-.52-.33-.32-.52-.76-.2-.43-.2-.93 0-.51.2-.96.19-.45.52-.77.32-.33.77-.52.44-.2.93-.2.51 0 .96.2.45.19.79.52.33.32.53.77t.2.96Zm6.4 10.76h7.23q0-.74-.21-1.4-.21-.66-.63-1.16-.42-.49-1.06-.78-.64-.29-1.5-.29-1.66 0-2.61.95-.95.94-1.22 2.68Zm9.77 2.31h-9.84q.09 1.22.43 2.11.34.9.9 1.48t1.33.87q.76.28 1.69.28.93 0 1.61-.21.67-.22 1.17-.49.51-.26.89-.48.38-.21.73-.21.48 0 .72.35l1.1 1.4q-.64.74-1.43 1.25-.79.5-1.65.8-.86.3-1.75.43-.89.12-1.73.12-1.66 0-3.08-.55-1.43-.55-2.48-1.63-1.06-1.07-1.66-2.66-.61-1.59-.61-3.68 0-1.63.53-3.06.53-1.44 1.51-2.5.99-1.06 2.4-1.68 1.42-.62 3.21-.62 1.5 0 2.77.48t2.19 1.4q.91.92 1.43 2.27.52 1.34.52 3.06 0 .86-.19 1.17-.18.3-.71.3Zm23.56-8.43h2.91l-5.05 15.9h-3.07q-.53 0-.73-.68l-2.85-9.19q-.14-.47-.25-.93-.12-.45-.2-.92-.09.47-.21.94-.11.47-.25.94l-2.9 9.16q-.19.68-.82.68h-2.95l-5.04-15.9h3.06q.42 0 .71.2t.39.51l2.28 8.49q.17.7.3 1.37.13.66.22 1.33.17-.67.37-1.33.19-.67.41-1.37l2.63-8.52q.1-.31.37-.51t.66-.2h1.69q.4 0 .69.2.28.2.38.51l2.55 8.52q.2.7.38 1.38.18.67.35 1.34.2-1.32.57-2.72l2.35-8.49q.1-.31.38-.51t.67-.2Zm17.93 7.44h7.13l-2.73-7.46q-.2-.49-.41-1.18-.22-.68-.44-1.47-.2.79-.42 1.48-.21.69-.41 1.2l-2.72 7.43Zm5.69-13.95 8.81 22.41h-3.23q-.54 0-.88-.27-.34-.27-.51-.68l-1.68-4.57h-9.28l-1.68 4.57q-.12.36-.48.66-.35.29-.88.29h-3.26l8.82-22.41h4.25Zm21.84 6.51h3.02l-6.31 15.9h-3.47l-6.31-15.9h3.17q.43 0 .72.2.28.2.38.51l3.07 8.49q.24.75.43 1.46t.33 1.43q.15-.72.34-1.43.18-.71.45-1.46l3.13-8.49q.11-.31.38-.51.28-.2.67-.2Zm13.45 11.79v-2.68q-1.65.08-2.79.29-1.13.21-1.81.53-.68.33-.98.76-.29.44-.29.95 0 1.01.6 1.44.59.43 1.55.43 1.18 0 2.04-.42.86-.43 1.68-1.3Zm-8.09-8.35-.68-1.23q2.75-2.51 6.6-2.51 1.4 0 2.5.46t1.86 1.27q.76.81 1.16 1.95.39 1.13.39 2.48v10.04h-1.74q-.54 0-.83-.16-.3-.17-.47-.66l-.34-1.15q-.6.54-1.18.95-.57.42-1.19.69-.62.28-1.33.43-.7.15-1.55.15-1.01 0-1.86-.27-.86-.27-1.48-.82-.62-.54-.96-1.35-.34-.8-.34-1.87 0-.61.2-1.2.21-.6.66-1.14.46-.54 1.19-1.02.73-.49 1.79-.84 1.06-.36 2.47-.58 1.41-.23 3.22-.27v-.93q0-1.6-.68-2.37t-1.97-.77q-.93 0-1.54.22t-1.08.49q-.46.27-.84.49-.38.22-.84.22-.41 0-.69-.21-.28-.21-.45-.49Zm15.55-3.44h3.84v15.9h-3.84v-15.9Zm4.37-4.64q0 .5-.2.93-.2.44-.53.76-.34.33-.79.52t-.96.19q-.49 0-.94-.19-.44-.19-.76-.52-.33-.32-.52-.76-.2-.43-.2-.93 0-.51.2-.96.19-.45.52-.77.32-.33.76-.52.45-.2.94-.2.51 0 .96.2.45.19.79.52.33.32.53.77t.2.96Zm3.43-2.49h3.83v23.03h-3.83v-23.03Zm16.05 18.92v-2.68q-1.65.08-2.79.29-1.13.21-1.81.53-.68.33-.98.76-.29.44-.29.95 0 1.01.6 1.44.59.43 1.55.43 1.18 0 2.04-.42.86-.43 1.68-1.3Zm-8.09-8.35-.68-1.23q2.75-2.51 6.6-2.51 1.4 0 2.5.46t1.86 1.27q.76.81 1.16 1.95.39 1.13.39 2.48v10.04h-1.74q-.54 0-.83-.16-.3-.17-.47-.66l-.34-1.15q-.6.54-1.18.95-.57.42-1.19.69-.62.28-1.33.43-.7.15-1.55.15-1.01 0-1.86-.27-.86-.27-1.48-.82-.62-.54-.96-1.35-.34-.8-.34-1.87 0-.61.2-1.2.21-.6.66-1.14.46-.54 1.19-1.02.73-.49 1.79-.84 1.06-.36 2.47-.58 1.41-.23 3.22-.27v-.93q0-1.6-.68-2.37t-1.97-.77q-.93 0-1.54.22t-1.08.49q-.46.27-.84.49-.38.22-.84.22-.41 0-.69-.21-.28-.21-.45-.49Zm19.25 1.21v7.13q.66.79 1.42 1.11.77.33 1.62.33.89 0 1.59-.32.71-.32 1.2-.99.5-.68.76-1.72.27-1.05.27-2.5 0-2.62-.87-3.79-.87-1.18-2.5-1.18-1.1 0-1.92.51-.82.5-1.57 1.42Zm0-11.78v9.08q.97-1.01 2.14-1.6 1.17-.6 2.67-.6 1.38 0 2.49.54 1.11.54 1.89 1.56.78 1.01 1.2 2.46.42 1.44.42 3.24 0 1.93-.48 3.51-.48 1.59-1.37 2.71-.9 1.12-2.15 1.74-1.26.62-2.79.62-.74 0-1.35-.14-.6-.15-1.12-.42-.51-.26-.93-.64-.43-.38-.82-.84l-.17 1.07q-.09.4-.31.57-.23.17-.62.17h-2.52v-23.03h3.82Zm13.82 0h3.82v23.03h-3.82v-23.03Zm10.67 13.25h7.23q0-.74-.21-1.4-.21-.66-.63-1.16-.42-.49-1.06-.78-.64-.29-1.5-.29-1.66 0-2.61.95-.95.94-1.22 2.68Zm9.77 2.31h-9.84q.09 1.22.43 2.11.34.9.9 1.48t1.33.87q.76.28 1.69.28.93 0 1.61-.21.67-.22 1.18-.49.5-.26.88-.48.38-.21.73-.21.49 0 .72.35l1.1 1.4q-.64.74-1.43 1.25-.79.5-1.65.8-.86.3-1.75.43-.89.12-1.73.12-1.66 0-3.08-.55-1.43-.55-2.48-1.63-1.06-1.07-1.66-2.66-.61-1.59-.61-3.68 0-1.63.53-3.06.53-1.44 1.51-2.5.99-1.06 2.41-1.68 1.41-.62 3.2-.62 1.5 0 2.77.48t2.19 1.4q.91.92 1.43 2.27.52 1.34.52 3.06 0 .86-.19 1.17-.18.3-.71.3Z"/></svg>